<svg width="18" height="16" viewBox="0 0 18 16" fill="none" xmlns="http://www.w3.org/2000/svg">
<path fill-rule="evenodd" clip-rule="evenodd" d="M0 1C0 0.447715 0.447715 0 1 0H17C17.5523 0 18 0.447715 18 1C18 1.55228 17.5523 2 17 2H1C0.447716 2 0 1.55228 0 1ZM0 7.99997C0 7.44768 0.447715 6.99997 1 6.99997H9C9.55228 6.99997 10 7.44768 10 7.99997C10 8.55225 9.55229 8.99997 9 8.99997H1C0.447716 8.99997 0 8.55225 0 7.99997ZM1 14C0.447715 14 0 14.4477 0 15C0 15.5523 0.447716 16 1 16H13C13.5523 16 14 15.5523 14 15C14 14.4477 13.5523 14 13 14H1Z" fill="white"/>
</svg>
